<svg width="33" height="33" viewBox="0 0 33 33" fill="none" xmlns="http://www.w3.org/2000/svg">
<path d="M32.777 16.3885C32.777 7.33641 25.4406 0 16.3885 0C7.33641 0 0 7.33641 0 16.3885C0 25.4406 7.33641 32.777 16.3885 32.777C16.4845 32.777 16.5805 32.777 16.6766 32.7706V20.0183H13.1556V15.9148H16.6766V12.8931C16.6766 9.39137 18.8148 7.48365 21.9388 7.48365C23.4368 7.48365 24.7236 7.59248 25.0949 7.64369V11.3055H22.9439C21.2474 11.3055 20.9145 12.1121 20.9145 13.2964V15.9084H24.9796L24.4483 20.0119H20.9145V32.1432C27.7644 30.1779 32.777 23.8721 32.777 16.3885Z" fill="white"/>
</svg>
