<svg width="33" height="34" viewBox="0 0 33 34" fill="none" xmlns="http://www.w3.org/2000/svg">
<path d="M16.3885 0.776978C7.33768 0.776978 0 8.11433 0 17.1655C0 26.2166 7.33768 33.554 16.3885 33.554C25.4393 33.554 32.777 26.2166 32.777 17.1655C32.777 8.11433 25.4393 0.776978 16.3885 0.776978ZM24.7016 18.9379C25.4655 19.684 26.2736 20.3862 26.9593 21.2094C27.2631 21.5735 27.5494 21.9501 27.7674 22.3736C28.0786 22.9775 27.7976 23.6397 27.257 23.6756L23.8995 23.6749C23.0324 23.7467 22.3423 23.397 21.7606 22.8041C21.2962 22.3317 20.8653 21.827 20.418 21.3385C20.2352 21.1379 20.0427 20.9492 19.8134 20.8006C19.3557 20.5029 18.958 20.5941 18.6958 21.0722C18.4285 21.5588 18.3675 22.0979 18.342 22.6395C18.3055 23.4312 18.0667 23.638 17.2724 23.6753C15.575 23.7547 13.9645 23.4972 12.4677 22.6415C11.1472 21.8867 10.1252 20.8214 9.23456 19.6153C7.50031 17.2641 6.17213 14.6835 4.97875 12.0288C4.71016 11.4309 4.90666 11.111 5.56622 11.0986C6.66203 11.0775 7.75783 11.0802 8.85364 11.0976C9.29961 11.1047 9.59469 11.3598 9.76603 11.7807C10.3582 13.2376 11.0842 14.6238 11.9939 15.9094C12.2363 16.2517 12.4838 16.5931 12.8362 16.8348C13.2251 17.1018 13.5216 17.0136 13.705 16.5793C13.8223 16.3034 13.873 16.0083 13.8984 15.7126C13.9856 14.6996 13.996 13.6869 13.8451 12.678C13.7512 12.0466 13.3961 11.6388 12.7668 11.5194C12.4462 11.4588 12.4931 11.3401 12.6491 11.157C12.9197 10.8404 13.1732 10.6446 13.6798 10.6446L17.4732 10.6439C18.0711 10.7613 18.2052 11.0296 18.2864 11.6318L18.2897 15.8473C18.2827 16.0804 18.4067 16.7711 18.8252 16.9237C19.1605 17.0344 19.3818 16.7654 19.5824 16.5532C20.4921 15.5878 21.1402 14.4484 21.7207 13.2691C21.9768 12.749 22.1978 12.2109 22.4124 11.6717C22.572 11.273 22.8202 11.0768 23.2701 11.0835L26.9231 11.0879C27.0307 11.0879 27.14 11.0889 27.2466 11.1073C27.8623 11.2126 28.0309 11.4775 27.8405 12.0781C27.5407 13.0217 26.9583 13.8076 26.3889 14.5956C25.7786 15.4393 25.1278 16.2534 24.5236 17.1008C23.9683 17.8753 24.0122 18.2653 24.7016 18.9379Z" fill="white"/>
</svg>
