<svg width="30" height="30" viewBox="0 0 30 30" fill="none" xmlns="http://www.w3.org/2000/svg">
<circle cx="15" cy="15" r="15" fill="white"/>
<g clip-path="url(#clip0)">
<path d="M15.5046 17.3607C15.3303 17.4696 15.1341 17.5132 14.9598 17.5132C14.7855 17.5132 14.5894 17.4696 14.415 17.3607L5.74219 12.0654V19.1039C5.74219 20.6075 6.96249 21.8278 8.46607 21.8278H21.4753C22.9789 21.8278 24.1992 20.6075 24.1992 19.1039V12.0654L15.5046 17.3607Z" fill="#01A743"/>
<path d="M21.4746 8.23047H8.46533C7.17966 8.23047 6.09011 9.14569 5.82861 10.366L14.9809 15.9445L24.1113 10.366C23.8498 9.14569 22.7603 8.23047 21.4746 8.23047Z" fill="#01A743"/>
</g>
<defs>
<clipPath id="clip0">
<rect width="18.457" height="18.457" fill="white" transform="translate(5.74219 5.80078)"/>
</clipPath>
</defs>
</svg>
