<svg width="33" height="34" viewBox="0 0 33 34" fill="none" xmlns="http://www.w3.org/2000/svg">
<path d="M28.1655 5.40226C21.7209 -1.0404 11.2736 -1.03885 4.83097 5.40581C-1.61169 11.8505 -1.61014 22.2977 4.83452 28.7403C11.2792 35.183 21.7264 35.1814 28.169 28.7368C31.2632 25.6417 33.0009 21.4442 33 17.0677C32.9991 12.692 31.2601 8.49588 28.1655 5.40226ZM24.9887 23.5556C24.9879 23.5563 24.9872 23.5571 24.9865 23.5578V23.5523L24.1504 24.3828C23.0692 25.4776 21.4946 25.9281 19.9979 25.5708C18.4901 25.1672 17.0566 24.5247 15.752 23.6678C14.5399 22.8931 13.4166 21.9876 12.4025 20.9673C11.4694 20.041 10.6311 19.024 9.89995 17.9313C9.10021 16.7555 8.46722 15.4747 8.01895 14.1253C7.50506 12.54 7.93091 10.8005 9.11897 9.6318L10.0979 8.65282C10.3701 8.37941 10.8124 8.37844 11.0858 8.65063C11.0865 8.65134 11.0872 8.65205 11.0879 8.65282L14.1789 11.7438C14.4523 12.016 14.4533 12.4583 14.1811 12.7316C14.1804 12.7323 14.1797 12.733 14.1789 12.7338L12.3639 14.5488C11.8431 15.0639 11.7777 15.8825 12.2099 16.4738C12.8664 17.3747 13.5928 18.2225 14.3825 19.0093C15.2628 19.8935 16.2199 20.6978 17.2424 21.4128C17.8333 21.825 18.6343 21.7555 19.1454 21.2478L20.8999 19.4658C21.1721 19.1924 21.6143 19.1915 21.8877 19.4637C21.8884 19.4644 21.8891 19.4651 21.8899 19.4658L24.9864 22.5678C25.2599 22.84 25.2608 23.2822 24.9887 23.5556Z" fill="white"/>
</svg>
